<svg xmlns="http://www.w3.org/2000/svg" width="64" height="64" xmlns:xlink="http://www.w3.org/1999/xlink"><linearGradient id="a" x1="1982.03" x2="1950.03" y1="-2544" y2="-2512" gradientTransform="matrix(1 0 0 -1 -1918 -2480)" gradientUnits="userSpaceOnUse"><stop offset=".32" stop-color="#FFF" stop-opacity="0"/><stop offset=".35" stop-color="#E9E9E9" stop-opacity=".05"/><stop offset=".45" stop-color="#ACACAC" stop-opacity=".2"/><stop offset=".56" stop-color="#787878" stop-opacity=".35"/><stop offset=".66" stop-color="#4D4D4D" stop-opacity=".5"/><stop offset=".75" stop-color="#2B2B2B" stop-opacity=".64"/><stop offset=".84" stop-color="#131313" stop-opacity=".77"/><stop offset=".93" stop-color="#050505" stop-opacity=".9"/><stop offset="1"/></linearGradient><path fill="url(#a)" d="M64.03 64V30.06L49 15.03 15.06 48.97 30.1 64" opacity=".2"/><circle cx="32" cy="32" r="24" fill="#F2890A"/><defs><circle id="b" cx="32.03" cy="32" r="24"/></defs><clipPath id="c"><use overflow="visible" xlink:href="#b"/></clipPath><g clip-path="url(#c)" opacity=".15"><linearGradient id="d" x1="605.27" x2="568.84" y1="801.63" y2="765.2" gradientTransform="translate(-548 -727)" gradientUnits="userSpaceOnUse"><stop offset=".48" stop-opacity="0"/><stop offset="1"/></linearGradient><path fill="url(#d)" d="M57.83 69c-.03-.02-.07-.05-.1-.1-.04-.03-.08-.05-.12-.1l-.1-.1-.1-.1-.1-.1c0-.03-.1-.06-.1-.1l-.1-.1-.1-.1-.1-.1c0-.03-.1-.06-.1-.1 0-.03-.1-.06-.1-.1l-.1-.1-.1-.1-.1-.1c0-.03-.1-.06-.1-.1l-.1-.1-.1-.1c0-.04-.1-.07-.1-.1l-.1-.1-.1-.1-.1-.1-.1-.1-.1-.1-.1-.1c0-.04-.1-.07-.1-.1l-.1-.1-.1-.1-.1-.1-.1-.1-.1-.1c0-.05-.1-.08-.1-.12l-.1-.1-.1-.1-.1-.1-.1-.1-.1-.1-.1-.1-.1-.1-.1-.1-.1-.1-.1-.1-.1-.1-.1-.1-.1-.1-.1-.1-.1-.1-.1-.1-.1-.1-.1-.1-.1-.1-.1-.1-.1-.1-.1-.1-.1-.1-.1-.1-.1-.1c0-.05 0-.08-.1-.1l-.1-.12-.1-.1-.1-.1c0-.03-.1-.06-.1-.1 0-.03-.1-.06-.1-.1l-.1-.1-.1-.1-.1-.1-.1-.1-.1-.1-.1-.1-.1-.1-.1-.1-.1-.1-.1-.1-.1-.1-.1-.1-.1-.1-.1-.1-.1-.1-.1-.1-.1-.1-.1-.1-.14-.1-.1-.1-.1-.1-.1-.1-.1-.12-.1-.1-.1-.1-.1-.1-.1-.1c-.04-.03-.1-.06-.1-.1-.05-.03-.1-.06-.12-.1l-.1-.1-.1-.1-.1-.1-.1-.1-.1-.1-.1-.1c0-.04-.1-.07-.1-.1l-.1-.1-.1-.1-.1-.1-.1-.1-.1-.1-.1-.1c-.02-.04-.1-.07-.1-.1l-.1-.1-.1-.1-.1-.1-.1-.1-.12-.12-.1-.1-.1-.1-.1-.1-.1-.1-.1-.1-.1-.1-.1-.1c-.1-.03-.1-.06-.1-.1l-.17-.1-.1-.1-.1-.1-.1-.1-.1-.1-.1-.1-.1-.1-.1-.1-.1-.1-.13-.1-.1-.1-.1-.1-.1-.1-.1-.1-.14-.1-.1-.12-.1-.1-.1-.1c-.06-.03-.1-.06-.1-.1s-.1-.06-.14-.1-.1-.06-.1-.1l-.18-.1-.1-.1-.1-.1c-.04-.03-.1-.06-.1-.1l-.1-.1-.13-.1-.1-.1-.1-.1-.1-.1-.13-.1-.1-.1-.1-.1-.1-.1-.1-.1-.1-.1-.1-.1-.15-.1-.1-.1-.1-.1-.1-.1-.1-.12-.12-.1-.1-.1-.1-.1-.1-.1c0-.03-.1-.06-.1-.1l-.1-.1-.1-.1-.1-.1-.1-.1-.1-.1-.1-.1-.1-.1-.13-.1-.1-.1-.1-.1-.1-.1-.1-.1c-.02-.04-.1-.07-.1-.1l-.1-.1-.1-.1c0-.05 0-.08-.1-.1l-.1-.12-.1-.1c0-.03-.1-.06-.1-.1 0-.03-.1-.06-.1-.1l-.1-.1-.1-.1-.1-.1-.1-.1-.1-.1c-.05-.03-.1-.06-.1-.1l-.14-.1-.1-.1-.16-.1-.1-.1-.16-.1-.1-.1-.1-.1-.1-.1-.1-.1-.12-.1-.1-.1-.1-.1-.1-.1-.1-.1-.1-.1-.1-.1-.14-.1-.1-.12-.1-.1c-.02-.03-.1-.06-.1-.1l-.1-.1c-.05-.03-.1-.06-.1-.1-.05-.03-.1-.06-.13-.1l-.1-.1-.1-.1-.1-.1c-.05-.03-.1-.06-.1-.1l-.14-.1-.1-.1-.1-.1-.1-.1-.1-.1-.1-.1c-.02-.04-.1-.07-.1-.1l-.1-.1c-.02-.04-.1-.07-.1-.1l-.1-.1-.1-.1-.1-.1-.12-.1-.1-.1-.1-.1-.14-.12-.1-.1c-.06-.03-.1-.06-.1-.1l-.1-.1c-.07-.03-.1-.06-.1-.1l-.1-.1-.1-.1-.1-.1-.17-.1-.1-.1-.1-.1-.1-.1-.14-.1-.1-.1-.18-.1-.1-.1-.1-.1-.1-.1-.18-.1-.1-.1-.1-.1c0-.05-.07-.07-.1-.1l-.1-.1-.1-.1-.1-.1-.14-.1-.1-.12-.1-.1-.1-.1-.1-.1-.1-.1-.1-.1-.1-.1-.1-.1-.1-.1-.1-.1-.1-.1-.1-.1-.1-.1-.1-.1-.2-.1-.1-.1-.15-.1-.1-.1-.1-.1-.1-.1-.1-.1-.1-.1-.1-.12-.1-.1-.12-.1-.1-.1-.1-.1-.1-.1-.1-.1-.1-.1-.1-.1-.1-.1-.1-.1-.1-.1-.1-.1c-.1-.04-.1-.07-.1-.1l-.1-.1-.2-.1-.1-.1-.15-.1-.1-.1c-.6-.66-1.5-1.06-2.43-1.06-1.96 0-3.5 1.56-3.5 3.47 0 1 .4 1.8 1.1 2.5l.1.1.1.1.1.1.1.1.1.1.1.1.1.1.1.1.1.1.1.1.18.1.1.1.1.1.1.1.1.1.1.1.1.1c.07 0 .1 0 .1.1l.1.1.1.1.1.1c.1 0 .1.1.17.1s.1.1.1.1c.1 0 .1.1.15.1l.1.1.1.1.1.1.1.1.1.1.1.1.1.1.1.1.1.1.1.1.1.1.1.1.1.1.1.1.18.1.1.1.1.1.1.1.15.1.1.1.1.1.1.1s.07.1.1.1l.1.1c.05 0 .1.1.1.1.05 0 .1.1.1.1l.1.1.15.1.1.1.1.1c.04 0 .1 0 .1.1l.1.1.1.1c.05 0 .1 0 .1.1.06 0 .1 0 .1.1l.14.1.1.1.1.1.1.1.1.1.1.1.1.1.1.1.1.1.1.1.13.1.1.1c.1 0 .1.1.17.1 0 0 .05.1.1.1l.1.1.1.1.1.1.1.1.1.1c.05 0 .1 0 .1.1.06 0 .1 0 .1.1s.1 0 .14.1l.1.1.1.1.1.1.1.1.1.1.1.1.1.1.1.1.1.1.14.1.1.1.1.1.1.1.1.1.1.1.1.1.15.1.1.1.1.1.1.1.1.1.1.1.2.1.1.1.1.1.1.1.1.1.1.1.1.1s.1 0 .1.1l.1.1.1.1.1.1.1.1.1.1.1.1.1.1.1.1.1.1.1.1.1.1.1.1.1.1.1.1.1.1.1.1.1.1.1.1.1.1.1.1.1.1.1.1.1.1.1.1.1.1.1.1.1.1.18.1.1.1.1.1.1.1c.03 0 .1.1.1.1.04 0 .1.1.1.1l.13.1s.03.1.1.1l.1.1.1.1.1.1.1.1.1.1.1.1c.04 0 .1 0 .1.1l.1.1.1.1.1.1.1.1.1.1.1.1c.05 0 .1 0 .1.1l.1.1.14.1.1.1.2.1.1.1.1.1.1.1.1.1c.03 0 .1.1.1.1l.1.1.1.1.1.1.1.1.2.1.1.1.14.1.1.1.1.1.1.1.1.1c.07 0 .1 0 .1.1l.1.1.1.1.1.1.17.1.1.1.1.1c.06 0 .1 0 .1.1l.1.1.15.1.1.1.1.1c.04 0 .1 0 .1.1l.1.1.1.1.1.1.1.1.1.1c.06 0 .1 0 .1.1l.14.1.1.1.1.1.1.1.1.1.1.1.1.1.1.1.1.1.15.1.1.1.1.1.1.1.1.1.1.1.1.1.1.1.1.1.1.1.1.1.14.1.1.1.1.1.1.1.1.1.1.1.1.1c.06 0 .1 0 .1.1l.14.1.1.1.1.1.1.1.2.1.1.1.1.1c.07 0 .1 0 .1.1l.1.1.1.1.1.1.1.1c.07 0 .1 0 .1.1l.1.1.1.1.1.1.17.1.1.1.1.1.1.1.1.1.15.1.1.1.1.1.1.1.1.1.15.1.1.1.1.1.1.1.1.1.1.1.1.1.1.1.1.1.13.1s.07.1.1.1c.04 0 .1.1.1.1l.1.1.1.1.14.1c.08 0 .1 0 .1.1l.16.1.1.1.1.1.1.1.1.1.1.1.1.1.1.1.1.1.1.1.1.1.1.1c.04 0 .1 0 .1.1l.1.1.1.1.1.1.14.1.1.1.1.1.1.1.1.1.1.1.1.1.1.1c.02 0 .1 0 .1.1l.1.1.1.1.1.1.16.1.1.1.1.1c.6.6 1.45 1 2.42 1 1.9 0 3.5-1.6 3.5-3.5 0-1-.5-1.9-1.1-2.5z"/><linearGradient id="e" x1="624.69" x2="567.19" y1="803.31" y2="745.81" gradientTransform="translate(-548 -727)" gradientUnits="userSpaceOnUse"><stop offset=".48" stop-opacity="0"/><stop offset="1"/></linearGradient><path fill="url(#e)" d="M78 75c0-7.65-3.3-14.53-8.57-19.3l-.12-.1-.1-.1-.1-.1-.1-.1-.1-.1-.1-.1c0-.03-.1-.06-.1-.1 0-.02-.1-.06-.1-.1l-.1-.1-.1-.1-.1-.1-.1-.1c0-.02-.1-.06-.1-.1l-.1-.1-.1-.1c0-.03-.1-.06-.1-.1l-.1-.1-.1-.1c0-.03-.1-.06-.1-.1l-.1-.1-.1-.1-.1-.1-.1-.1-.1-.1-.1-.1-.1-.1-.1-.1-.1-.1-.1-.1-.1-.1s-.1-.06-.1-.1l-.1-.1-.1-.1-.1-.1c0-.04-.1-.07-.1-.1l-.1-.1-.1-.1-.1-.1-.1-.1-.1-.1-.1-.1-.1-.1-.1-.1-.1-.1-.1-.1-.1-.1-.1-.1-.1-.1-.1-.1-.1-.1-.1-.1-.1-.1-.1-.1-.1-.1-.1-.1-.1-.1-.1-.1-.1-.1-.1-.1-.1-.1-.1-.1-.1-.1-.1-.1-.1-.1-.1-.1-.1-.1-.1-.1c0-.03-.1-.07-.1-.1l-.1-.1-.1-.1-.1-.1-.1-.1c-.03-.03-.1-.06-.1-.1-.04-.03-.1-.07-.13-.12l-.1-.08-.1-.1-.2-.1-.1-.1-.1-.1-.13-.1-.1-.1-.1-.1c-.03-.03-.1-.07-.1-.1l-.1-.1-.12-.1-.1-.1-.1-.1-.1-.1-.1-.1-.1-.1-.1-.1-.1-.1-.1-.1-.1-.1-.1-.1-.1-.1-.1-.1-.1-.1-.1-.1-.1-.1-.1-.1-.1-.1-.2-.12-.1-.1c-.03-.02-.1-.05-.1-.1-.04-.02-.1-.05-.1-.1l-.1-.1-.1-.1-.1-.1c-.05-.02-.1-.06-.13-.1l-.1-.08-.1-.1-.13-.1-.1-.1-.1-.1-.1-.1-.1-.1-.1-.1-.1-.1-.1-.1-.1-.1-.1-.12c-.06-.03-.1-.06-.1-.1-.07-.02-.1-.06-.14-.1-.04-.02-.1-.05-.1-.1-.05-.02-.1-.06-.13-.1l-.1-.1-.1-.1c0-.02-.1-.06-.1-.1l-.1-.1-.1-.1c-.03-.02-.1-.06-.1-.1l-.1-.1-.1-.1c-.04-.02-.1-.05-.12-.1l-.1-.1-.1-.1c-.03-.03-.1-.06-.1-.1l-.1-.1c-.05-.03-.1-.06-.1-.1s-.1-.06-.14-.1l-.1-.1-.1-.1-.1-.1c-.04-.03-.1-.06-.1-.1l-.12-.1-.1-.1-.1-.1-.1-.1-.1-.1c0-.03-.1-.06-.1-.1l-.1-.1-.1-.1-.1-.1-.1-.1-.1-.1c-.03-.02-.1-.05-.1-.1-.04-.02-.1-.06-.1-.1-.05-.03-.1-.06-.12-.1l-.1-.1c-.07-.03-.1-.06-.15-.1l-.1-.1-.1-.1c-.02-.02-.1-.05-.1-.1-.03-.02-.1-.06-.1-.1l-.1-.1-.1-.1-.1-.1c0-.02-.1-.06-.1-.1l-.1-.1-.1-.1-.1-.1c-.05-.03-.1-.06-.1-.1-.05-.02-.1-.06-.13-.1l-.1-.1-.1-.1-.1-.1c-.03-.03-.1-.06-.1-.1l-.1-.1-.1-.1-.1-.08-.16-.12-.1-.1-.1-.1-.1-.1c-.03-.02-.1-.06-.1-.1L49 37c-.04-.03-.08-.06-.1-.1-.05-.02-.08-.05-.12-.1-.04-.02-.07-.06-.1-.1l-.13-.1-.1-.1c-.04-.02-.07-.06-.1-.1-.04-.02-.08-.06-.12-.1l-.1-.1-.12-.1-.1-.1-.1-.1-.1-.1c0-.03-.1-.06-.1-.1l-.1-.1-.1-.1c0-.02-.1-.06-.1-.1 0-.03-.1-.06-.1-.1l-.1-.1-.1-.1-.1-.1-.1-.1-.1-.1-.1-.1-.1-.1-.1-.1-.1-.1-.1-.1-.1-.1-.1-.1-.1-.1-.1-.1-.1-.1c0-.03-.1-.06-.1-.1 0-.03-.1-.06-.1-.1l-.1-.1-.1-.1-.1-.1-.1-.1-.1-.1-.1-.1-.1-.1-.1-.1-.1-.1-.1-.1-.1-.1-.1-.1-.1-.1-.1-.1-.1-.1-.1-.1-.1-.1-.1-.1-.1-.1-.1-.1-.1-.1-.1-.1-.1-.1-.1-.1-.1-.1-.1-.1c0-.03-.1-.07-.1-.1l-.1-.1-.1-.1-.1-.1-.1-.1-.1-.1-.1-.1-.1-.1-.1-.1c0-.03-.1-.07-.1-.1l-.1-.1-.1-.1-.1-.1-.1-.1-.1-.1c-.04-.02-.1-.06-.12-.1l-.1-.1-.1-.1-.1-.1-.1-.1-.12-.1-.1-.1-.1-.1-.1-.1-.1-.1c-.02-.03-.1-.06-.1-.1l-.1-.1-.1-.1-.1-.1-.1-.1-.1-.08-.1-.1-.1-.1-.1-.1-.13-.1-.1-.1-.14-.1-.1-.1-.1-.1-.1-.1-.16-.1-.1-.1-.1-.1-.1-.1-.1-.1-.1-.1-.15-.1c0-.04-.1-.07-.1-.1l-.1-.1-.1-.1-.1-.1-.1-.1-.1-.1C31.9 21.58 25.7 19 19 19v4.33h.1v.1h.12v.1h.1v.1h.12v.1h.1v.1h.12v.1h.1v.1h.12v.1h.1v.1h.12v.1h.1v.1h.12v.1h.1v.1h.1v.1h.12v.1h.1v.1h.12v.1h.1v.1h.12v.1h.1v.1h.12v.1h.1v.1h.12v.1h.1v.1h.12v.1h.1v.1h.12v.1h.1v.1h.12v.1h.1v.1h.12v.1h.1v.1h.12v.1h.1v.1h.1v.1h.12v.1h.1v.1h.12v.1h.1v.1h.12v.1h.1v.1h.12v.1h.1v.1h.12v.1h.1v.1h.12v.1h.1v.1h.12v.1h.1v.1h.12v.1h.1v.1h.12v.1h.1v.1h.12v.1h.1v.04c-1.87-.7-3.9-1.1-6.02-1.1V32h.1v.1h.1v.1h.12v.1h.1v.1h.12v.1h.1v.1h.12v.1h.1v.1H20v.1h.1v.1h.12v.1h.1v.1h.12v.1h.1v.1h.12v.1h.1v.1h.12v.1h.1v.1h.12v.1h.1v.1h.12v.1h.1v.1h.12v.1h.1v.1h.1v.1h.12v.1h.1v.1h.12v.1h.1v.1h.12v.1h.1v.1h.12v.1h.1v.1c.05 0 .08 0 .12.02v.1h.1v.1h.12v.1h.1v.1h.12v.1h.1v.1h.12v.1h.1v.1h.12v.1h.1v.1h.12v.1h.1v.1h.1v.1h.12v.1h.1v.1h.12v.1h.1v.1h.12v.1h.1v.1h.12v.1h.1v.1h.12v.1h.1v.1h.12v.1c.04 0 .07 0 .1.02v.1h.12v.1h.1v.1h.12v.1h.1v.1h.12v.1h.1v.1h.12v.1h.1v.1h.12v.1h.1v.1h.12v.1h.1v.1h.12v.1h.1v.1h.1v.1h.12v.1h.1v.1h.12v.1h.1v.1h.12v.1h.1v.1c.05 0 .08 0 .12.02v.1h.1v.1H28v.1h.1v.1h.12v.1h.1v.1h.12v.1h.1v.1h.12v.1h.1v.1h.1v.1h.12v.1h.1v.1h.12v.1h.1v.1h.12v.1h.1v.1h.12v.1h.1v.1h.12v.1h.1v.1h.12v.1h.1v.1c.04 0 .08 0 .12.02v.1h.1v.1h.12v.1h.1v.1h.1v.1h.12v.1h.1v.1h.12v.1h.1v.1h.12v.1h.1v.1h.12v.1h.1v.1h.12v.1h.1v.1h.1c.02.03.02.06.02.08v.02c.06.3.08.7.08 1.12h.1v.1h.1l.02.1h.1v.1h.1l.02.1h.1v.1h.1l.02.1h.1v.1h.1l.02.1h.1v.1h.1v.1h.12v.1h.1v.1h.12v.1h.1v.1h.12v.1h.1v.1h.1l.02.1h.1v.12h.1l.02.1h.1v.1h.1v.1h.12v.1h.1v.1h.1l.02.1h.1v.1h.1l.02.1h.1v.1h.1l.02.1h.1v.1h.1l.02.1h.1v.1h.1l.02.1h.1v.1h.1l.02.1h.1v.1h.1l.02.1h.1v.1h.1l.02.1h.1v.1h.1v.1h.12v.1h.12v.12h.1v.1h.12v.1h.1l.02.1h.1v.1h.1l.02.1h.1v.1h.1v.1h.12v.1h.1v.1h.12v.1h.1v.1h.1l.02.1h.1v.1h.1l.02.1h.1v.1h.1v.1h.12v.1h.1v.1h.12v.1h.1v.1h.12v.1h.1v.12h.12v.1h.1v.1h.12v.1h.1v.1h.1l.02.1h.1v.1h.1l.02.1h.1v.1h.1l.02.1h.1v.1h.1v.1h.12v.1h.1v.1h.12v.1h.1v.1h.1l.02.1h.1v.1h.1l.02.1h.1v.1h.1v.1h.12v.1h.1v.12h.12v.1h.1v.1h.12v.1h.1v.1h.12v.1h.1v.1h.12v.1h.12v.1h.1l.02.1h.1v.1h.1l.02.1h.1v.1h.1l.02.1h.1v.1h.1v.1h.12v.1h.1v.1h.12v.1h.1v.1h.1l.02.1h.1v.1h.1l.02.1h.1v.1h.1l.02.1h.1v.12h.1l.02.1h.1v.1h.1l.02.1h.1v.1h.1v.1h.12v.1h.1v.1h.12v.1h.1v.1h.1l.02.1h.1v.1h.1l.02.1h.1v.1h.12v.1h.1l.02.1h.1v.1h.1l.02.1h.1v.1h.1v.1h.12v.1h.1v.1h.12v.12h.1v.1h.12v.1h.1v.1h.12v.1h.1v.1h.1l.02.1h.1v.1h.1l.02.1h.1v.1h.1v.1h.12v.1h.1v.1h.1v.1h.1v.1h.1l.02.1h.1v.1h.1l.02.1h.1v.1h.1l.02.1h.1v.1h.1v.1H49v.12h.1v.1h.12v.1h.1v.1h.12v.1h.1v.1h.1l.02.1h.1v.1h.1l.02.1h.1v.1h.1l.02.1h.1v.1h.1v.1h.12v.1h.1v.1h.12v.1h.1v.1h.1l.02.1h.1v.1h.1l.02.1h.1v.1h.1l.02.1h.12v.1h.1v.1h.12v.12h.1v.1h.1l.02.1h.1v.1h.1l.02.1h.1v.1h.1l.02.1h.1v.1h.1l.02.1h.1v.1h.1v.1h.12v.1h.1l.02.1h.1v.1h.1v.1h.12v.1h.1v.1h.12v.1h.1v.1h.12v.1h.1v.1h.1l.02.1h.1v.1h.1l.02.12h.1v.1h.1v.1h.12v.1h.1v.1h.12v.1h.12v.1h.1v.1h.12v.1h.1v.1h.12v.1h.1v.1h.12v.1h.1v.1h.1l.02.1h.1v.1h.1l.02.1h.1v.1h.1v.1h.12v.1h.1v.1h.12v.1h.1v.1h.1l.02.12h.1v.1h.1l.02.1h.1v.1h.1l.02.1h.1v.1h.1v.1h.12v.1h.1v.1h.12v.1h.1v.1h.12v.1h.1v.1h.1l.02.1h.1v.1h.1v.1h.12v.1h.1v.1h.12v.1h.1v.1h.12v.1h.1v.1h.12v.12h.1v.1h.12v.1h.1v.1h.1l.02.1h.1v.1h.1l.02.1h.1v.1h.1v.1h.12v.1h.1v.1h.12v.1h.1v.1h.14v.1h.1v.1h.12v.1h.1v.1h.12v.1h.1v.1h.1l.02.1h.1v.1h.1l.02.1h.1v.1h.1l.02.1h.1v.1h.1l.02.12h.1v.1h.1l.02.1h.1v.1h.1v.1h.12v.1h.1v.1h.12v.1h.1v.1h.12v.1h.1v.1h.1l.02.1h.1v.1h.1l.02.1h.1v.1h.1v.1h.12v.1h.1v.1h.12v.1h.1v.1h.1l.02.1h.1v.12h.1l.02.1h.1v.1h.1l.02.1h.1v.1h.1l.02.1h.1v.1h.1l.02.1h.1v.1h4.34c0-1.6-.23-3.12-.63-4.58l.1.1h.1v.1h.1v.1h.1v.1h.1v.1h.1v.1h.1v.1h.1v.1h.1v.1h.1v.1h.1v.1h.1v.1h.2v.1h.1v.1h.1v.1h.1v.1h.1v.1h.1v.1h.1v.1h.1v.12h.1v.1h.1v.1h.2v.1h.1v.1h.1v.1h.1v.1h.1v.1h.1v.1h.2v.1h.1v.1h.2v.1h.1v.1h.1v.1h.1v.1h.1v.1h.2v.1h.1v.1h.1v.1h.1v.1h.1v.1h.1v.1h.1v.1h.1v.1h.1v.12h.2v.1h.1v.1H78V75z"/></g><g fill="#FFF"><circle cx="22.47" cy="41.53" r="3.47"/><path d="M19 19v4.33c11.97 0 21.67 9.7 21.67 21.67H45c0-14.36-11.64-26-26-26z"/><path d="M19 27.67V32c7.18 0 13 5.82 13 13h4.33c0-9.57-7.76-17.33-17.33-17.33z"/></g></svg>